<?xml version="1.0" encoding="UTF-8" standalone="no"?>
<!-- Created with Inkscape (http://www.inkscape.org/) -->

<svg
   width="1003.7812"
   height="141.9375"
   viewBox="0 0 1003.7812 141.9375"
   version="1.1"
   id="svg1"
   inkscape:version="1.4.2 (ebf0e940d0, 2025-05-08)"
   sodipodi:docname="title.inkscape.svg"
   xmlns:inkscape="http://www.inkscape.org/namespaces/inkscape"
   xmlns:sodipodi="http://sodipodi.sourceforge.net/DTD/sodipodi-0.dtd"
   xmlns="http://www.w3.org/2000/svg"
   xmlns:svg="http://www.w3.org/2000/svg">
  <sodipodi:namedview
     id="namedview1"
     pagecolor="#ffffff"
     bordercolor="#000000"
     borderopacity="0.25"
     inkscape:showpageshadow="2"
     inkscape:pageopacity="0.0"
     inkscape:pagecheckerboard="true"
     inkscape:deskcolor="#d1d1d1"
     inkscape:document-units="px"
     inkscape:zoom="0.73701597"
     inkscape:cx="476.92318"
     inkscape:cy="388.05129"
     inkscape:window-width="2560"
     inkscape:window-height="1408"
     inkscape:window-x="0"
     inkscape:window-y="0"
     inkscape:window-maximized="1"
     inkscape:current-layer="layer1" />
  <defs
     id="defs1" />
  <g
     inkscape:label="Layer 1"
     inkscape:groupmode="layer"
     id="layer1"
     transform="translate(-138.10937,-249.03125)">
    <path
       d="m 138.10937,388.71875 17.4375,-104.8125 h 34.3125 l -1.5,19.875 q 6.375,-11.8125 14.8125,-16.5 8.53125,-4.6875 17.34375,-4.6875 10.3125,0 16.21875,6 5.90625,5.90625 8.0625,19.21875 7.21875,-14.34375 17.25,-19.78125 10.03125,-5.4375 19.96875,-5.4375 10.5,0 17.71875,4.6875 7.3125,4.6875 10.5,12.9375 3.1875,8.25 1.40625,19.03125 l -11.53125,69.46875 h -37.6875 L 272.82812,326.375 q 2.25,-13.40625 -8.625,-13.40625 -6.5625,0 -11.34375,4.5 -4.6875,4.5 -5.8125,11.34375 l -9.9375,59.90625 h -36 L 211.51562,326.375 q 1.125,-6.84375 -1.21875,-10.125 -2.34375,-3.28125 -7.40625,-3.28125 -6.5625,0 -11.34375,4.5 -4.6875,4.5 -5.8125,11.34375 l -9.9375,59.90625 z m 233.34375,1.875 q -23.15625,0 -35.53125,-12.1875 -12.375,-12.1875 -12.375,-32.34375 0,-12.75 4.125,-24.1875 4.125,-11.4375 12,-20.25 7.96875,-8.90625 19.40625,-13.96875 11.53125,-5.0625 26.34375,-5.0625 23.0625,0 35.34375,12.1875 12.375,12.1875 12.375,32.34375 0,12.65625 -4.03125,24.09375 -4.03125,11.4375 -11.90625,20.34375 -7.875,8.8125 -19.40625,13.96875 -11.4375,5.0625 -26.34375,5.0625 z m 1.5,-28.125 q 6.28125,0 10.59375,-3.9375 4.3125,-3.9375 6.84375,-9.84375 2.625,-6 3.75,-12.28125 1.125,-6.375 1.125,-11.0625 0,-7.21875 -3.09375,-10.875 -3,-3.75 -8.25,-3.75 -6.375,0 -10.78125,3.84375 -4.3125,3.84375 -6.9375,9.75 -2.53125,5.8125 -3.65625,12.09375 -1.125,6.1875 -1.125,10.96875 0,7.3125 3.09375,11.25 3.1875,3.84375 8.4375,3.84375 z m 105.5625,27.5625 q -15,0 -25.125,-10.3125 -10.125,-10.3125 -10.125,-30.9375 0,-11.90625 3.09375,-23.625 3.1875,-11.71875 9.375,-21.375 6.1875,-9.65625 15.28125,-15.375 9.09375,-5.8125 21,-5.8125 12.46875,0 19.125,6.375 6.75,6.375 8.4375,14.4375 h 0.9375 l 9,-54.375 h 37.6875 l -23.15625,139.6875 h -37.3125 l 3.1875,-17.25 h -1.21875 q -4.59375,8.90625 -12.28125,13.78125 -7.59375,4.78125 -17.90625,4.78125 z m 14.8125,-28.875 q 7.78125,0 13.03125,-5.53125 5.25,-5.53125 7.96875,-13.59375 2.71875,-8.0625 2.71875,-15.46875 0,-15.09375 -11.71875,-15.09375 -5.90625,0 -10.3125,3.375 -4.40625,3.28125 -7.3125,8.625 -2.90625,5.34375 -4.40625,11.4375 -1.40625,6.09375 -1.40625,11.625 0,14.625 11.4375,14.625 z m 106.3125,28.875 q -11.0625,0 -18.46875,-5.0625 -7.40625,-5.0625 -10.5,-13.96875 -3,-8.90625 -1.125,-20.34375 l 11.0625,-66.75 h 37.6875 l -9.75,58.875 q -1.21875,7.78125 1.96875,12.28125 3.1875,4.40625 10.3125,4.40625 6.9375,0 11.8125,-4.40625 4.875,-4.5 6.09375,-12.28125 l 9.75,-58.875 h 37.6875 l -17.34375,104.8125 H 633.48437 L 636.67187,365 q -5.625,10.78125 -14.625,17.90625 -9,7.125 -22.40625,7.125 z m 149.15625,-141 -23.15625,139.6875 h -37.6875 l 23.15625,-139.6875 z m 48.1875,141.9375 q -22.3125,0 -35.34375,-11.34375 -12.9375,-11.4375 -12.9375,-31.78125 0,-12.84375 4.3125,-24.5625 4.40625,-11.71875 12.5625,-20.8125 8.25,-9.1875 19.875,-14.53125 11.625,-5.34375 26.15625,-5.34375 11.90625,0 21.75,3.84375 9.84375,3.75 15.65625,10.96875 5.90625,7.125 5.90625,17.34375 0,12 -8.53125,18.5625 -8.4375,6.5625 -24.09375,9.375 -15.65625,2.8125 -37.21875,3.46875 0,1.3125 0,2.625 0,6.84375 3,11.25 3,4.40625 11.8125,4.40625 6.375,0 11.0625,-2.4375 4.6875,-2.4375 6.1875,-7.03125 l 33.46875,2.4375 q -4.59375,14.90625 -18.65625,24.28125 -14.0625,9.28125 -34.96875,9.28125 z m -9,-65.25 q 13.875,-0.1875 20.90625,-1.03125 7.125,-0.84375 9.5625,-2.4375 2.4375,-1.6875 2.4375,-4.59375 0,-8.625 -13.21875,-8.625 -8.34375,0 -12.9375,4.96875 -4.59375,4.96875 -6.75,11.71875 z m 152.625,-6.75 -4.6875,28.3125 h -65.4375 l 4.6875,-28.3125 z m 10.875,69.75 17.34375,-104.8125 h 36.56248 l -3.2812,20.0625 h 1.125 q 4.6875,-11.15625 11.7187,-16.21875 7.0313,-5.15625 15.375,-5.15625 4.6875,0 9.375,1.5 l -5.3437,32.0625 q -2.625,-1.03125 -6.6563,-1.40625 -4.0312,-0.46875 -6.9375,-0.46875 -8.3437,0 -14.7187,5.4375 -6.28128,5.4375 -7.87503,14.4375 l -9,54.5625 z m 131.53123,1.875 q -22.0312,0 -34.6875,-9.375 -12.6562,-9.375 -12.8437,-24.65625 v -0.46875 l 34.875,-2.625 q 0.75,6.1875 3.75,8.90625 3,2.71875 10.9687,2.71875 3.0938,0 6.4688,-0.65625 3.4687,-0.65625 5.9062,-2.34375 2.4375,-1.6875 2.4375,-4.78125 0,-2.4375 -2.25,-4.03125 -2.1562,-1.6875 -7.5937,-2.625 l -18,-3.375 q -13.6875,-2.625 -20.8125,-9.84375 -7.0313,-7.3125 -7.0313,-17.625 0,-12.65625 7.2188,-20.90625 7.2187,-8.25 19.125,-12.28125 11.9062,-4.03125 25.7812,-4.03125 21.4688,0 33.375,8.53125 11.9063,8.4375 12.1875,22.59375 v 0.375 l -33.1875,2.34375 q -0.375,-5.15625 -3.375,-6.9375 -3,-1.78125 -8.5312,-1.78125 -2.9063,0 -6.375,0.75 -3.4688,0.75 -6,2.53125 -2.4375,1.78125 -2.4375,5.0625 0,1.875 1.5,3.5625 1.5937,1.6875 6.2812,2.53125 l 20.8125,3.75 q 13.7813,2.4375 21,8.8125 7.2188,6.28125 7.2188,16.40625 0,9.75 -4.6875,17.15625 -4.6875,7.40625 -12.6563,12.375 -7.9687,4.96875 -18,7.5 -9.9375,2.4375 -20.4375,2.4375 z"
       id="text1"
       style="font-style:italic;font-weight:900;font-size:192px;font-family:Inter;-inkscape-font-specification:'Inter, Heavy Italic';fill:#e0e0e0;stroke-width:5;stroke-linecap:round;stroke-linejoin:round;paint-order:stroke fill markers"
       aria-label="module-rs" />
  </g>
</svg>
