<svg version="1.1" viewBox="0 0 1003.8 141.94" xmlns="http://www.w3.org/2000/svg"><g transform="translate(-138.11 -249.03)"><path d="m138.11 388.72 17.438-104.81h34.312l-1.5 19.875q6.375-11.812 14.812-16.5 8.5312-4.6875 17.344-4.6875 10.312 0 16.219 6 5.9062 5.9062 8.0625 19.219 7.2188-14.344 17.25-19.781t19.969-5.4375q10.5 0 17.719 4.6875 7.3125 4.6875 10.5 12.938t1.4062 19.031l-11.531 69.469h-37.688l10.406-62.344q2.25-13.406-8.625-13.406-6.5625 0-11.344 4.5-4.6875 4.5-5.8125 11.344l-9.9375 59.906h-36l10.406-62.344q1.125-6.8438-1.2188-10.125t-7.4062-3.2812q-6.5625 0-11.344 4.5-4.6875 4.5-5.8125 11.344l-9.9375 59.906zm233.34 1.875q-23.156 0-35.531-12.188t-12.375-32.344q0-12.75 4.125-24.188t12-20.25q7.9688-8.9062 19.406-13.969 11.531-5.0625 26.344-5.0625 23.062 0 35.344 12.188 12.375 12.188 12.375 32.344 0 12.656-4.0312 24.094t-11.906 20.344q-7.875 8.8125-19.406 13.969-11.438 5.0625-26.344 5.0625zm1.5-28.125q6.2812 0 10.594-3.9375t6.8438-9.8438q2.625-6 3.75-12.281 1.125-6.375 1.125-11.062 0-7.2188-3.0938-10.875-3-3.75-8.25-3.75-6.375 0-10.781 3.8438-4.3125 3.8438-6.9375 9.75-2.5312 5.8125-3.6562 12.094-1.125 6.1875-1.125 10.969 0 7.3125 3.0938 11.25 3.1875 3.8438 8.4375 3.8438zm105.56 27.562q-15 0-25.125-10.312t-10.125-30.938q0-11.906 3.0938-23.625 3.1875-11.719 9.375-21.375t15.281-15.375q9.0938-5.8125 21-5.8125 12.469 0 19.125 6.375 6.75 6.375 8.4375 14.438h0.9375l9-54.375h37.688l-23.156 139.69h-37.312l3.1875-17.25h-1.2188q-4.5938 8.9062-12.281 13.781-7.5938 4.7812-17.906 4.7812zm14.812-28.875q7.7812 0 13.031-5.5312t7.9688-13.594 2.7188-15.469q0-15.094-11.719-15.094-5.9062 0-10.312 3.375-4.4062 3.2812-7.3125 8.625t-4.4062 11.438q-1.4062 6.0938-1.4062 11.625 0 14.625 11.438 14.625zm106.31 28.875q-11.062 0-18.469-5.0625t-10.5-13.969q-3-8.9062-1.125-20.344l11.062-66.75h37.688l-9.75 58.875q-1.2188 7.7812 1.9688 12.281 3.1875 4.4062 10.312 4.4062 6.9375 0 11.812-4.4062 4.875-4.5 6.0938-12.281l9.75-58.875h37.688l-17.344 104.81h-35.344l3.1875-23.719q-5.625 10.781-14.625 17.906t-22.406 7.125zm149.16-141-23.156 139.69h-37.688l23.156-139.69zm48.188 141.94q-22.312 0-35.344-11.344-12.938-11.438-12.938-31.781 0-12.844 4.3125-24.562 4.4062-11.719 12.562-20.812 8.25-9.1875 19.875-14.531t26.156-5.3438q11.906 0 21.75 3.8438 9.8438 3.75 15.656 10.969 5.9062 7.125 5.9062 17.344 0 12-8.5312 18.562-8.4375 6.5625-24.094 9.375t-37.219 3.4688q0 1.3125 0 2.625 0 6.8438 3 11.25t11.812 4.4062q6.375 0 11.062-2.4375t6.1875-7.0312l33.469 2.4375q-4.5938 14.906-18.656 24.281-14.062 9.2812-34.969 9.2812zm-9-65.25q13.875-0.1875 20.906-1.0312 7.125-0.84375 9.5625-2.4375 2.4375-1.6875 2.4375-4.5938 0-8.625-13.219-8.625-8.3438 0-12.938 4.9688t-6.75 11.719zm152.62-6.75-4.6875 28.312h-65.438l4.6875-28.312zm10.875 69.75 17.344-104.81h36.562l-3.2812 20.062h1.125q4.6875-11.156 11.719-16.219 7.0313-5.1562 15.375-5.1562 4.6875 0 9.375 1.5l-5.3437 32.062q-2.625-1.0312-6.6563-1.4062-4.0312-0.46875-6.9375-0.46875-8.3437 0-14.719 5.4375-6.2813 5.4375-7.875 14.438l-9 54.562zm131.53 1.875q-22.031 0-34.688-9.375-12.656-9.375-12.844-24.656v-0.46875l34.875-2.625q0.75 6.1875 3.75 8.9062t10.969 2.7188q3.0938 0 6.4688-0.65625 3.4687-0.65625 5.9062-2.3438t2.4375-4.7812q0-2.4375-2.25-4.0312-2.1562-1.6875-7.5937-2.625l-18-3.375q-13.688-2.625-20.812-9.8438-7.0313-7.3125-7.0313-17.625 0-12.656 7.2188-20.906 7.2187-8.25 19.125-12.281 11.906-4.0312 25.781-4.0312 21.469 0 33.375 8.5312 11.906 8.4375 12.188 22.594v0.375l-33.188 2.3438q-0.375-5.1562-3.375-6.9375t-8.5312-1.7812q-2.9063 0-6.375 0.75-3.4688 0.75-6 2.5312-2.4375 1.7812-2.4375 5.0625 0 1.875 1.5 3.5625 1.5937 1.6875 6.2812 2.5312l20.812 3.75q13.781 2.4375 21 8.8125 7.2188 6.2812 7.2188 16.406 0 9.75-4.6875 17.156t-12.656 12.375q-7.9687 4.9688-18 7.5-9.9375 2.4375-20.438 2.4375z" fill="#e0e0e0" stroke-linecap="round" stroke-linejoin="round" stroke-width="5" style="paint-order:stroke fill markers" aria-label="module-rs"/></g></svg>
